<svg width="203" height="97" viewBox="0 0 203 97" fill="none" xmlns="http://www.w3.org/2000/svg">
<path d="M2.21644 81.4277L1.88299 69.1604L2.91842 67.1757V63.9003L4.04799 63.3467L4.97174 51.8947L5.14404 44.0229L5.83646 38.5043L5.79019 36.7924L5.77104 35.8751L6.56397 35.2879L6.28158 29.7726L7.27713 22.6825L9.67346 17.8707L10.9275 16.2577L13.2967 14.8984L17.1321 14.3863L20.2878 14.5985L21.5291 15.1664L23.643 15.3611L26.0808 16.4731L32.9316 22.6825L36.5803 25.6835L40.6502 28.2234L43.1215 28.9525L47.1484 28.4324L51.6252 27.2039L57.3511 25.1075L57.6926 21.521L59.0295 16.0519L61.7418 8.8693L64.6311 3.53898L66.485 1.65479L70.0922 2.75563L72.9161 2.6599L74.6631 3.19756L87.3962 9.65744L95.2425 14.3831L103.031 19.7182L103.859 20.3739L105.386 20.4744L107.419 21.805L109.761 24.7837L110.362 26.6503L116.347 30.0023L117.762 30.3198L119.346 30.9819L121.482 32.8501L123.491 33.7851L124.697 33.8568C124.697 33.8568 126.092 34.2142 126.192 34.2605C126.293 34.3068 129.401 35.9851 129.401 35.9851L130.513 36.719L132.001 36.5116L135 37.0094L136.642 37.8646L137.465 38.5458L139.699 39.1584L142.566 40.3694L143.33 39.8588L145.966 40.8336L147.509 42.2472L147.568 42.7306L148.723 43.4629L149.788 44.4712L150.333 45.4843L150.96 46.3075L153.434 46.8149L154.324 46.0523L155.339 46.1145L162.21 48.1981L167.943 49.6117L173.024 50.3121L176.253 50.3918L180.611 51.4879L187.166 53.7135L191.85 55.8051L195.052 58.2669C195.052 58.2669 196.855 60.577 196.914 60.6775C196.973 60.7781 197.974 62.9223 197.974 62.9223L198.656 65.4973L199.51 65.7829L200.403 66.6556L201.594 75.8708L201.402 79.3711L199.767 82.1919L196.598 84.5116L190.036 85.8438L170.928 89.1096L163.458 90.1913L160.612 90.6444L158.003 91.2555L153.876 91.7612L148.702 92.2749L144.161 92.7264L140.801 92.9498L138.123 93.3136L135.889 93.5018L128.276 94.0921L121.219 94.4272H116.505L115.002 94.5293L113.526 93.6917L98.6998 93.6263L97.7457 93.9565L89.3123 93.9262L87.4313 93.2657L73.299 93.5002L71.576 94.0953L70.2278 94.3649L67.6129 93.5497L64.3279 94.7909C64.3279 94.7909 61.4434 95.035 61.3381 95.035C61.2328 95.035 57.474 94.9297 57.474 94.9297L55.7605 94.6075L55.3888 95.1052H46.4624L44.5335 93.7619L42.3621 93.8959L41.4671 94.7606L40.7763 95.1355H37.4785L36.8404 94.223L33.1549 94.3857L32.5152 95.1371H29.3243L28.5441 94.0475L27.2678 93.7364L25.3868 94.148L24.2891 94.9473L14.8793 93.7699L13.7226 94.1544L11.4189 93.2226L10.7982 92.6132C10.7982 92.6132 8.33968 92.7488 8.22321 92.7296C8.10675 92.7105 4.22508 91.474 4.22508 91.474L2.13028 89.4207L1.59741 86.8537L1.73462 84.3058L2.19091 82.4711L2.20686 81.4292L2.21644 81.4277Z" fill="white"/>
<path d="M198.695 65.7031C192.86 66.1371 130.463 75.8038 125.996 75.7543C122.84 75.7192 122.055 76.8296 121.21 77.881C119.756 79.6886 111.055 91.1342 111.055 91.1342C111.055 91.1342 85.2073 90.3923 71.6989 90.8917C70.7416 90.9268 70.2199 91.1789 69.8211 91.1964C67.9066 91.281 67.3258 91.2443 66.15 91.3879C66.15 91.3879 50.9584 75.5932 48.6195 73.3596C46.2806 71.126 42.3973 70.0618 37.5041 70.0618C32.611 70.0618 6.76507 70.4878 2.72386 67.7756C2.72386 67.7756 1.71396 67.7756 1.9788 70.8595C2.24523 73.9435 2.24523 81.8153 2.19099 82.6657C2.13675 83.516 1.60547 82.9321 1.60547 87.0802C1.60547 91.2283 5.59403 92.1856 7.61544 92.6116C9.63684 93.0375 10.275 92.7711 10.8063 92.6116C10.8063 92.6116 11.8162 93.9406 13.3063 93.9406C14.7964 93.9406 14.2987 93.6039 15.1857 93.8337C16.0728 94.0634 23.1629 94.8436 24.4216 94.8436C25.0869 94.8436 25.2864 93.9661 25.8575 93.8592C26.4287 93.7523 28.5299 93.513 28.7022 94.2182C28.8745 94.9233 29.5398 95.0685 30.2051 95.0685H32.7051C33.0912 95.0685 32.9572 94.258 33.4103 94.258H37C37.4116 94.258 37.0271 95.1355 37.7706 95.1355H41.1337C41.5597 95.1355 41.4257 93.6725 43.4997 93.7124C45.5738 93.7523 45.8003 95.1355 46.6906 95.1355H55.0395C56.0892 95.1355 55.491 94.5899 55.8499 94.5899C56.2089 94.5899 56.5806 94.9489 58.0436 94.9489C59.5066 94.9489 64.8114 95.5599 67.763 93.5401C67.763 93.5401 68.9595 94.3649 70.2359 94.3649C71.5122 94.3649 72.8412 93.4077 73.9851 93.4077H87.2543C89.0619 93.4077 88.1844 93.9932 90.3127 93.9932C92.441 93.9932 95.3654 93.9661 97.3055 93.9661C99.2455 93.9661 97.8112 93.5401 99.6188 93.5401C101.426 93.5401 111.637 93.8065 113.073 93.8065C114.509 93.8065 114.057 94.6043 115.785 94.6043C117.513 94.6043 131.687 94.0459 133.175 93.6917C133.175 93.6917 138.511 93.355 139.841 93.1062C141.17 92.8573 142.446 92.752 143.581 92.752C144.715 92.752 150.424 92.0787 151.363 91.9718C152.303 91.8649 154.253 91.7229 155.387 91.6703C156.521 91.6176 159.907 90.8726 160.617 90.6428C161.325 90.4131 164.835 90.0222 165.829 89.9153C166.821 89.8084 191.249 85.8023 194.759 84.8993C198.269 83.9947 201.975 81.8042 201.566 76.3909C200.928 67.9351 201.034 65.5276 198.695 65.7015V65.7031Z" stroke="#121212" stroke-width="2" stroke-linecap="round" stroke-linejoin="round"/>
<path d="M1.88306 83.6279C3.46891 84.3155 10.3292 85.6461 12.4033 85.4866C14.4773 85.327 15.8606 83.0408 16.3392 81.924C16.8178 80.8072 17.882 78.0423 20.4873 78.5209C23.0926 78.9996 46.6523 82.5095 47.8217 82.9355C48.9912 83.3615 52.3416 86.924 53.6179 88.3599C54.8943 89.7958 56.6492 91.4981 56.6492 92.2416C56.6492 92.9851 56.5886 94.2534 57.7612 94.949" stroke="#121212" stroke-width="2" stroke-linecap="round" stroke-linejoin="round"/>
<path d="M124.321 75.869C125.27 75.4702 129.474 69.9851 130.731 69.9037C136.795 69.5081 190.158 66.5438 192.425 66.4863" stroke="#121212" stroke-width="2" stroke-linecap="round" stroke-linejoin="round"/>
<path d="M56.075 80.4163C59.0105 80.6779 63.2193 80.5471 66.6239 79.7845C70.0269 79.0218 107.063 83.4348 115.546 85.2408" stroke="#121212" stroke-width="2" stroke-linecap="round" stroke-linejoin="round"/>
<path d="M2.72388 67.7773C2.74143 65.8276 2.72388 65.9696 2.72388 64.7986C2.72388 63.6276 3.3094 63.3101 4.33685 63.6643C5.36431 64.0184 10.7537 65.2246 15.3628 65.2246C19.972 65.2246 29.5095 65.8978 30.8209 65.8978C32.1324 65.8978 34.8286 69.3535 35.5721 70.0715" stroke="#121212" stroke-width="2" stroke-linecap="round" stroke-linejoin="round"/>
<path d="M13.2712 65.1514C14.0865 65.196 15.717 62.5652 16.143 61.8568C16.569 61.1484 16.9934 60.4385 18.1995 60.4385C18.8026 60.4385 41.3156 61.5026 43.5843 61.6797C45.853 61.8568 50.6393 64.0202 53.8652 67.2813C57.0912 70.5423 64.3807 78.8162 66.1484 79.8596" stroke="#121212" stroke-width="2" stroke-linecap="round" stroke-linejoin="round"/>
<path d="M93.5769 81.9749C96.0785 81.951 106.484 78.7394 115.787 69.3743C121.961 63.1569 127.327 56.504 131.582 57.6208C135.837 58.7376 148.174 62.7261 150.567 61.2376C152.96 59.7491 155.435 56.6109 158.372 56.504C161.309 56.3971 164.865 56.0844 171.998 51.7177C175.827 49.374 176.785 50.4413 182.386 52.2139C187.988 53.9864 197.064 55.794 198.695 65.7048" stroke="#121212" stroke-width="2" stroke-linecap="round" stroke-linejoin="round"/>
<path d="M4.0481 63.581C4.0481 58.4533 4.97504 54.6961 4.97504 51.5754C4.97504 48.4548 5.11703 41.1158 5.57811 39.4853C6.03919 37.8548 6.14608 37.1097 5.7903 36.7906C5.43452 36.4715 5.43612 35.7265 6.60556 35.4441C7.77501 35.1601 12.9873 33.3174 16.3552 33.3174C19.7231 33.3174 21.4255 36.0823 22.4529 38.1739C23.4804 40.2655 22.2407 44.0243 25.7858 45.5128C29.3308 47.0013 38.9385 50.5831 51.5615 58.3831C64.1829 66.1831 64.3169 75.6185 65.3491 79.1252" stroke="#121212" stroke-width="2" stroke-linecap="round" stroke-linejoin="round"/>
<path d="M23.2983 42.6124C27.7368 44.4136 79.5068 58.8427 89.7175 62.2441C103.395 66.8006 112.187 44.6258 131.333 37.606" stroke="#121212" stroke-width="2" stroke-linecap="round" stroke-linejoin="round"/>
<path d="M47.1293 49.519C49.3278 48.3496 69.4302 34.806 72.5492 31.0823C75.6699 27.3602 71.9812 24.5586 68.508 22.6792C66.5408 23.9029 52.0225 31.1876 43.8858 31.1876C35.7491 31.1876 29.8461 26.2944 29.8461 26.2944C33.5682 32.5692 29.8461 34.1647 28.0385 35.6005C26.2308 37.0364 23.7835 38.9509 23.0049 40.8272" stroke="#121212" stroke-width="2" stroke-linecap="round" stroke-linejoin="round"/>
<path d="M149.077 49.0041C153.013 49.0041 153.332 46.0254 154.501 46.0254C157.367 46.0254 166.041 50.3665 174.816 50.3665" stroke="#121212" stroke-width="2" stroke-linecap="round" stroke-linejoin="round"/>
<path d="M111.055 91.1357C122.274 90.5917 126.765 90.33 142.855 84.0505C151.577 80.6474 196.407 74.7284 201.407 74.2051" stroke="#121212" stroke-width="2" stroke-linecap="round" stroke-linejoin="round"/>
<path d="M31.491 45.1861C33.0896 43.1008 47.8249 32.0302 68.2703 34.827" stroke="#121212" stroke-width="2" stroke-linecap="round" stroke-linejoin="round"/>
<path d="M6.60553 35.4429C5.75516 32.4116 6.49863 20.9772 9.90327 17.6268C9.90327 17.6268 11.127 14.3833 16.7636 14.3833C20.2289 14.3833 20.3629 14.6848 21.5323 15.1635C21.5323 15.1635 23.5713 14.8619 25.9102 16.3505C28.2507 17.839 38.4789 29.3978 43.7789 28.9543C55.8515 27.9444 76.2187 15.181 82.2813 15.181C88.3439 15.181 96.9353 20.4427 98.0521 21.1878" stroke="#121212" stroke-width="2" stroke-linecap="round" stroke-linejoin="round"/>
<path d="M57.3545 25.1076C57.3513 16.8306 64.5211 1.03587 66.86 1.67404C70.0589 2.54674 70.6364 2.84349 71.4868 2.73819C72.3371 2.63289 72.9753 2.47175 74.4654 3.10992C75.9556 3.74809 92.9628 11.5992 103.864 20.374" stroke="#121212" stroke-width="2" stroke-linecap="round" stroke-linejoin="round"/>
<path d="M143.334 39.8574C144.45 39.8574 147.571 41.4177 147.571 42.517C147.571 43.6162 145.39 46.0269 144.45 46.0269C143.511 46.0269 141.489 45.459 141.489 43.2621C141.489 41.0652 142.951 39.859 143.334 39.859V39.8574Z" stroke="#121212" stroke-width="2" stroke-linecap="round" stroke-linejoin="round"/>
<path d="M147.571 42.729C148.785 43.3401 151.365 44.7759 148.466 49.5096C145.923 53.664 141.598 59.5926 141.109 60.242" stroke="#121212" stroke-width="2" stroke-linecap="round" stroke-linejoin="round"/>
<path d="M153.437 46.8151C152.402 46.6396 151.018 46.5598 150.567 46.027C150.115 45.4957 150.631 44.9086 149.337 44.1523" stroke="#121212" stroke-width="2" stroke-linecap="round" stroke-linejoin="round"/>
<path d="M130.34 36.4718C132.893 36.4718 137.36 36.6489 137.714 39.8573C138.069 43.0657 136.934 42.9413 136.368 42.9413C135.801 42.9413 133.25 41.6458 132.185 39.1649C131.119 36.6856 131.44 37.1977 130.34 36.4702" stroke="#121212" stroke-width="2" stroke-linecap="round" stroke-linejoin="round"/>
<path d="M137.231 38.5059C137.909 38.5936 140.476 39.2445 142.571 40.3677" stroke="#121212" stroke-width="2" stroke-linecap="round" stroke-linejoin="round"/>
<path d="M95.2458 22.2725C95.1804 22.2359 95.115 22.2008 95.048 22.1641C92.3581 20.6851 89.8884 19.3433 87.9723 18.3733C84.0906 16.4062 77.7184 18.2904 68.5081 22.681" stroke="#121212" stroke-width="2" stroke-linecap="round" stroke-linejoin="round"/>
<path d="M105.11 25.7093C104.226 25.4349 103.593 25.32 103.448 25.4811C102.937 26.0459 101.398 25.6247 100.557 25.1987" stroke="#121212" stroke-width="2" stroke-linecap="round" stroke-linejoin="round"/>
<path d="M129.161 35.9212C129.383 36.0504 127.587 38.2362 126.795 37.8086C126.449 37.6219 122.944 35.9212 122.7 35.4027C122.601 35.1905 123.461 33.6557 124.587 33.7945C125.891 33.954 126.714 34.4853 129.161 35.9212Z" stroke="#121212" stroke-width="2" stroke-linecap="round" stroke-linejoin="round"/>
<path d="M117.293 37.8646C117.258 38.1726 119.314 39.4138 119.704 39.0245C120.093 38.6352 123.284 34.5222 121.122 32.3939C118.96 30.2656 117.119 29.9992 117.186 30.5496C117.275 31.2771 117.373 37.1706 117.293 37.8646Z" stroke="#121212" stroke-width="2" stroke-linecap="round" stroke-linejoin="round"/>
<path d="M105.629 20.5524C104.236 19.8903 94.3013 21.0837 94.3013 23.5167C94.3013 25.2988 95.7276 26.9629 96.0211 26.8272C98.3696 25.7376 103.395 24.2714 104.814 24.2395C107.862 24.1693 109.605 24.5586 110.243 25.6578C110.243 25.6578 108.465 21.899 105.629 20.5524Z" stroke="#121212" stroke-width="2" stroke-linecap="round" stroke-linejoin="round"/>
<path d="M104.764 24.4214C105.163 25.326 105.469 27.9441 105.469 29.1279C105.469 30.3117 106.095 32.85 107.875 32.85C109.656 32.85 110.575 30.6164 110.575 28.1036C110.575 25.5908 109.246 24.6065 109.246 24.6463" stroke="#121212" stroke-width="2" stroke-linecap="round" stroke-linejoin="round"/>
<path d="M10.4424 16.7717C16.7459 15.6246 18.9444 14.278 29.8459 26.2964" stroke="#121212" stroke-width="2" stroke-linecap="round" stroke-linejoin="round"/>
<path d="M110.367 26.4985C111.462 27.234 115.287 29.7803 117.184 30.302" stroke="#121212" stroke-width="2" stroke-linecap="round" stroke-linejoin="round"/>
<path d="M121.537 32.9297C122.309 33.1738 123.432 33.6716 124.032 33.8566" stroke="#121212" stroke-width="2" stroke-linecap="round" stroke-linejoin="round"/>
<path d="M128.997 35.8257C129.737 36.1001 130.109 36.3298 130.518 36.4718" stroke="#121212" stroke-width="2" stroke-linecap="round" stroke-linejoin="round"/>
<path d="M70.0938 2.75586C66.3445 7.36504 63.6147 13.1788 61.488 23.1422" stroke="#121212" stroke-width="2" stroke-linecap="round" stroke-linejoin="round"/>
<path d="M72.8156 45.2623C72.6273 45.0948 89.006 29.5937 89.6441 29.8059C90.2823 30.0181 96.8235 33.1036 96.7166 33.6875C96.6098 34.2715 95.7083 39.8028 96.7166 40.2814C97.725 40.7601 101.396 36.8784 101.875 36.3455C102.353 35.8126 108.749 39.9081 109.222 40.2272C109.694 40.5463 92.5685 55.8097 92.1426 56.0745C91.7166 56.341 85.2296 52.831 85.07 52.4577C84.9105 52.0844 86.1868 46.6153 86.0799 45.9994C85.973 45.3836 84.8036 44.6401 83.6868 45.7027C82.57 46.7668 80.0173 49.0531 79.7509 49.3722C79.4845 49.6912 73.0964 45.5096 72.814 45.2576L72.8156 45.2623Z" stroke="#121212" stroke-width="2" stroke-linecap="round" stroke-linejoin="round"/>
</svg>
